<svg id="visual" viewBox="0 0 900 600" width="900" height="600" xmlns="http://www.w3.org/2000/svg" xmlns:xlink="http://www.w3.org/1999/xlink" version="1.1"><rect x="0" y="0" width="900" height="600" fill="#fffbd3"></rect><path d="M0 166L16.7 150.3C33.3 134.7 66.7 103.3 100 101.3C133.3 99.3 166.7 126.7 200 144.8C233.3 163 266.7 172 300 167.7C333.3 163.3 366.7 145.7 400 154.8C433.3 164 466.7 200 500 217.8C533.3 235.7 566.7 235.3 600 227.5C633.3 219.7 666.7 204.3 700 192.8C733.3 181.3 766.7 173.7 800 158.5C833.3 143.3 866.7 120.7 883.3 109.3L900 98L900 0L883.3 0C866.7 0 833.3 0 800 0C766.7 0 733.3 0 700 0C666.7 0 633.3 0 600 0C566.7 0 533.3 0 500 0C466.7 0 433.3 0 400 0C366.7 0 333.3 0 300 0C266.7 0 233.3 0 200 0C166.7 0 133.3 0 100 0C66.7 0 33.3 0 16.7 0L0 0Z" fill="#f2d2a3" stroke-linecap="round" stroke-linejoin="miter"></path></svg>