<svg id="visual" viewBox="0 0 900 600" width="900" height="600" xmlns="http://www.w3.org/2000/svg" xmlns:xlink="http://www.w3.org/1999/xlink" version="1.1"><rect x="0" y="0" width="900" height="600" fill="#fffbd3"></rect><path d="M0 398L15 384C30 370 60 342 90 322.3C120 302.7 150 291.3 180 299.3C210 307.3 240 334.7 270 333C300 331.3 330 300.7 360 298.5C390 296.3 420 322.7 450 333C480 343.3 510 337.7 540 324.3C570 311 600 290 630 301.7C660 313.3 690 357.7 720 386.8C750 416 780 430 810 422.5C840 415 870 386 885 371.5L900 357L900 601L885 601C870 601 840 601 810 601C780 601 750 601 720 601C690 601 660 601 630 601C600 601 570 601 540 601C510 601 480 601 450 601C420 601 390 601 360 601C330 601 300 601 270 601C240 601 210 601 180 601C150 601 120 601 90 601C60 601 30 601 15 601L0 601Z" fill="#f2d2a3" stroke-linecap="round" stroke-linejoin="miter"></path></svg>